<?xml version="1.0" standalone="no"?>
<!DOCTYPE svg PUBLIC "-//W3C//DTD SVG 20010904//EN"
 "http://www.w3.org/TR/2001/REC-SVG-20010904/DTD/svg10.dtd">
<svg version="1.0" xmlns="http://www.w3.org/2000/svg"
 width="648.000000pt" height="648.000000pt" viewBox="0 0 648.000000 648.000000"
 preserveAspectRatio="xMidYMid meet">
<metadata>
Created by potrace 1.11, written by Peter Selinger 2001-2013
</metadata>
<g transform="translate(0.000000,648.000000) scale(0.100000,-0.100000)"
fill="#000000" stroke="none">
<path d="M1561 6455 c-140 -31 -290 -98 -397 -178 -77 -58 -188 -175 -237
-250 -57 -85 -122 -230 -149 -327 l-23 -85 0 -1950 c0 -2165 -6 -1979 65
-2149 76 -181 245 -373 451 -508 138 -92 1842 -998 1876 -998 6 0 228 110 494
244 266 135 675 338 909 452 470 229 545 270 675 372 243 187 389 418 425 669
8 55 10 629 8 1968 l-3 1890 -27 100 c-106 382 -417 679 -787 749 -74 14 -260
16 -1650 15 -1295 0 -1577 -3 -1630 -14z m1579 -375 l0 -220 -745 0 -745 0 -2
-1107 -3 -1108 -362 -3 -363 -2 0 945 c0 825 2 956 16 1023 72 348 335 615
675 681 24 5 378 9 787 10 l742 1 0 -220z m472 -237 c8 -10 170 -281 360 -603
190 -322 367 -620 395 -662 l49 -76 -1 676 0 677 230 0 230 0 3 -1107 2 -1108
305 0 306 0 -3 -942 c-4 -1054 1 -980 -77 -1143 -71 -148 -202 -288 -381 -407
-41 -27 -295 -158 -565 -291 -269 -132 -676 -335 -903 -449 -226 -115 -417
-206 -422 -203 -6 4 -10 216 -10 596 l0 589 280 0 280 0 0 430 c0 237 3 430 8
430 4 0 117 -194 252 -430 l244 -430 339 0 c268 0 337 3 331 13 -4 6 -137 209
-296 451 -159 241 -287 440 -285 442 1 2 31 12 64 22 205 64 354 228 398 437
19 90 19 280 0 369 -60 284 -274 469 -587 505 -64 7 -53 9 91 10 136 1 162 3
158 15 -3 8 -100 173 -215 368 -295 498 -412 700 -503 861 l-79 142 -2 -690
-3 -690 -230 0 -230 0 -3 248 -2 247 -420 0 -420 0 0 185 0 185 395 0 395 0 0
240 0 240 -395 0 -395 0 0 190 0 190 420 0 420 0 0 238 c0 131 3 242 7 245 3
4 106 7 228 7 199 0 223 -2 237 -17z m-1059 -2184 c146 -21 294 -73 416 -144
34 -20 61 -40 61 -45 0 -12 -170 -403 -180 -414 -5 -4 -30 8 -56 28 -243 186
-585 172 -611 -24 -12 -89 22 -152 107 -195 27 -13 126 -47 222 -75 248 -74
384 -135 461 -208 91 -86 154 -241 164 -403 22 -369 -172 -665 -512 -778 -255
-85 -567 -62 -811 59 -89 43 -257 160 -291 201 -10 12 12 54 117 228 71 117
131 216 135 219 3 3 34 -21 68 -55 176 -171 322 -240 487 -231 95 6 170 42
214 106 56 80 45 220 -22 285 -40 38 -139 80 -301 127 -247 71 -386 142 -477
243 -85 94 -114 177 -121 342 -4 100 -2 135 16 207 66 278 278 471 576 527 71
13 253 13 338 0z m1408 -503 c86 -20 140 -56 172 -115 46 -84 52 -243 12 -320
-23 -46 -91 -99 -147 -116 -31 -10 -105 -19 -180 -22 l-128 -6 0 297 0 296
108 0 c59 0 132 -6 163 -14z"/>
</g>
</svg>
