<?xml version="1.0" encoding="utf-8"?>
<!-- Generator: Adobe Illustrator 22.0.1, SVG Export Plug-In . SVG Version: 6.00 Build 0)  -->
<svg version="1.1" id="Layer_1" xmlns="http://www.w3.org/2000/svg" xmlns:xlink="http://www.w3.org/1999/xlink" x="0px" y="0px"
	 viewBox="0 0 26.7 39.9" style="enable-background:new 0 0 26.7 39.9;" xml:space="preserve">
<style type="text/css">
	.st0{fill:#283475;}
</style>
<path class="st0" d="M26.7,13.4C26.7,6,20.7,0,13.4,0C6,0,0,6,0,13.4c0,1.9,0.4,3.7,1.1,5.4c0,0-0.9-2,0,0
	c0.9,2,12.2,21.2,12.2,21.2s11.3-19.2,12.2-21.2C26.5,16.8,26.7,15.3,26.7,13.4z M13.4,18.9c-3.1,0-5.6-2.5-5.6-5.6
	c0-3.1,2.5-5.6,5.6-5.6c3.1,0,5.6,2.5,5.6,5.6C18.9,16.4,16.4,18.9,13.4,18.9z"/>
</svg>
