<?xml version="1.0" encoding="utf-8"?>
<!-- Generator: Adobe Illustrator 22.0.1, SVG Export Plug-In . SVG Version: 6.00 Build 0)  -->
<svg version="1.1" id="Layer_1" xmlns="http://www.w3.org/2000/svg" xmlns:xlink="http://www.w3.org/1999/xlink" x="0px" y="0px"
	 viewBox="0 0 27.1 36.5" style="enable-background:new 0 0 27.1 36.5;" xml:space="preserve">
<style type="text/css">
	.st0{fill:#283475;}
</style>
<g>
	<path class="st0" d="M26.5,29.9c0,0-4.3-3.5-5.2-4c-0.8-0.5-1.3-0.4-1.3-0.4l-2.3,1.2l8.6,6.8c0,0,0.5-1.6,0.7-2.3
		C27.2,30.5,26.5,29.9,26.5,29.9z"/>
	<path class="st0" d="M11.1,9.7c0.4-0.4,0.7-0.8,0.7-0.8l-0.1-7.2c0,0,0-0.5-1.1-1.2C9.4-0.2,8.8,0,8.8,0s0.1,9.8,0.3,10.3
		C9.3,10.7,10.7,10.1,11.1,9.7z"/>
	<path class="st0" d="M12.9,26.9c-1.6-2.1-6.4-11.8-6.4-11.8S5.2,12,8.2,10.6L7.9,0c0,0-8,0.1-7.9,7.3C0.1,14.6,1.6,21,3.9,24.5
		c2.4,3.6,8.5,12.9,15.4,11.9c0,0,3.4-0.7,6-2.4L17,27.4C17,27.4,14.5,29,12.9,26.9z"/>
</g>
</svg>
