<?xml version="1.0" encoding="utf-8"?>
<!-- Generator: Adobe Illustrator 16.0.0, SVG Export Plug-In . SVG Version: 6.00 Build 0)  -->
<!DOCTYPE svg PUBLIC "-//W3C//DTD SVG 1.1//EN" "http://www.w3.org/Graphics/SVG/1.1/DTD/svg11.dtd">
<svg version="1.1" id="Layer_1" xmlns="http://www.w3.org/2000/svg" xmlns:xlink="http://www.w3.org/1999/xlink" x="0px" y="0px"
	 viewBox="0 0 60.2 90" style="enable-background:new 0 0 60.2 90;" xml:space="preserve">
<style type="text/css">
	.st0{fill:none;}
	.st1{fill:#FFFFFF;}
</style>
<g>
	<path class="st0" d="M30.1,18.1c-6.9,0-12.5,5.6-12.5,12.5c0,6.9,5.6,12.5,12.5,12.5c6.9,0,12.5-5.6,12.5-12.5
		C42.6,23.7,37,18.1,30.1,18.1z"/>
	<path class="st0" d="M30.1,3.9C15.7,3.9,3.9,15.7,3.9,30.1c0,12.7,20.2,45,26.2,54.3c6-9.3,26.2-41.7,26.2-54.3
		C56.3,15.7,44.5,3.9,30.1,3.9z M30.1,47c-9,0-16.4-7.4-16.4-16.4S21,14.2,30.1,14.2c9.1,0,16.4,7.4,16.4,16.4S39.2,47,30.1,47z"/>
	<path class="st1" d="M30.1,0C13.5,0,0,13.5,0,30.1c0,15.9,27.3,57.3,28.5,59c0.4,0.5,1,0.9,1.6,0.9s1.3-0.3,1.6-0.9
		c1.2-1.8,28.5-43.1,28.5-59C60.2,13.5,46.7,0,30.1,0z M30.1,84.4c-6-9.3-26.2-41.7-26.2-54.3c0-14.4,11.7-26.2,26.2-26.2
		s26.2,11.7,26.2,26.2C56.3,42.7,36.1,75.1,30.1,84.4z"/>
	<path class="st1" d="M30.1,14.2c-9,0-16.4,7.4-16.4,16.4c0,9,7.4,16.4,16.4,16.4c9.1,0,16.4-7.4,16.4-16.4S39.2,14.2,30.1,14.2z
		 M30.1,43.1c-6.9,0-12.5-5.6-12.5-12.5c0-6.9,5.6-12.5,12.5-12.5c6.9,0,12.5,5.6,12.5,12.5C42.6,37.5,37,43.1,30.1,43.1z"/>
</g>
</svg>
