<svg version="1.1" id="Layer_1" xmlns="http://www.w3.org/2000/svg" xmlns:xlink="http://www.w3.org/1999/xlink" x="0px" y="0px" viewBox="0 0 61.3 435.1" style="enable-background:new 0 0 61.3 435.1;" xml:space="preserve">
<style type="text/css">
	.st0{fill:#FFFFFF;}
	.st1{fill:none;stroke:#FFFFFF;stroke-width:4;stroke-miterlimit:10;}
</style>
<g>
	<path class="st0" d="M6.6,392.3h9.7c-4,4.7-5.9,9.6-5.9,14.7c0,5.6,2,10.3,6,14.1c4,3.8,8.9,5.8,14.6,5.8c5.7,0,10.5-1.9,14.4-5.8   c3.9-3.8,5.9-8.6,5.9-14.1c0-2.9-0.5-5.3-1.4-7.3c-0.5-1.1-1.1-2.3-1.9-3.5c-0.8-1.2-1.8-2.5-2.9-3.8H55c2.6,4.7,4,9.6,4,14.8   c0,7.8-2.7,14.4-8.1,19.9c-5.5,5.5-12,8.2-19.8,8.2c-6.9,0-13.1-2.3-18.5-6.9c-6.6-5.6-9.9-12.9-9.9-21.8   C2.6,401.6,4,396.9,6.6,392.3z"/>
	<path class="st0" d="M30.6,385c-7.6,0-14.2-2.8-19.7-8.4c-5.5-5.6-8.2-12.3-8.2-20.1c0-7.7,2.8-14.4,8.3-19.9   c5.5-5.6,12.2-8.3,19.9-8.3c7.8,0,14.4,2.8,19.9,8.4c5.5,5.6,8.2,12.4,8.2,20.3c0,7-2.4,13.3-7.3,18.9C46.3,382,39.3,385,30.6,385z    M30.7,376.8c6,0,10.9-2,14.8-6c3.9-4,5.8-8.6,5.8-13.9c0-5.7-2-10.5-5.9-14.4c-4-3.9-8.8-5.9-14.6-5.9c-5.8,0-10.6,1.9-14.6,5.8   c-3.9,3.8-5.9,8.6-5.9,14.3c0,5.6,2,10.4,5.9,14.3C20.2,374.8,25,376.8,30.7,376.8z"/>
	<path class="st0" d="M58,318H0l41.4-39.6H3.7v-8.2h57.6L20,309.8h38V318z"/>
	<path class="st0" d="M11.4,242.2H58v8.2H11.4v12.5H3.7v-33.1h7.7V242.2z"/>
	<path class="st0" d="M44.8,193.5v23.2l13.2,6v8.8L0.3,204.8L58,178.9v9L44.8,193.5z M37.1,196.9l-18.5,8.1l18.5,8.4V196.9z"/>
	<path class="st0" d="M6.6,134.5h9.7c-4,4.7-5.9,9.6-5.9,14.7c0,5.6,2,10.3,6,14.1c4,3.8,8.9,5.8,14.6,5.8c5.7,0,10.5-1.9,14.4-5.8   c3.9-3.8,5.9-8.6,5.9-14.1c0-2.9-0.5-5.3-1.4-7.3c-0.5-1.1-1.1-2.3-1.9-3.5c-0.8-1.2-1.8-2.5-2.9-3.8H55c2.6,4.7,4,9.6,4,14.8   c0,7.8-2.7,14.4-8.1,19.9c-5.5,5.5-12,8.2-19.8,8.2c-6.9,0-13.1-2.3-18.5-6.9c-6.6-5.6-9.9-12.9-9.9-21.8   C2.6,143.8,4,139.1,6.6,134.5z"/>
	<path class="st0" d="M11.4,109.2H58v8.2H11.4v12.5H3.7V96.7h7.7V109.2z"/>
</g>
<polyline class="st1" points="41.3,11.1 22.2,28.2 41.3,45.4 "/>
<circle class="st1" cx="31.8" cy="28.2" r="26.2"/>
</svg>