<?xml version="1.0" encoding="utf-8"?>
<!-- Generator: Adobe Illustrator 16.0.0, SVG Export Plug-In . SVG Version: 6.00 Build 0)  -->
<!DOCTYPE svg PUBLIC "-//W3C//DTD SVG 1.1//EN" "http://www.w3.org/Graphics/SVG/1.1/DTD/svg11.dtd">
<svg version="1.1" id="Layer_1" xmlns="http://www.w3.org/2000/svg" xmlns:xlink="http://www.w3.org/1999/xlink" x="0px" y="0px"
	 width="209.519px" height="55.5px" viewBox="0 0 209.519 55.5" enable-background="new 0 0 209.519 55.5" xml:space="preserve">
<path fill="#13120D" d="M68.308,45.21c-0.39,0.01-0.702,0.018-0.937,0.022c-0.235,0.005-0.453,0.007-0.654,0.007
	c-0.346,0-0.891-0.009-1.639-0.029h-0.265v0.605l1.126,0.115c0.098,0.014,0.134,0.039,0.146,0.05
	c0.005,0.004,0.032,0.034,0.05,0.134c0.057,0.433,0.12,1.296,0.187,2.566c0.062,1.171,0.118,2.578,0.169,4.19
	c-1.202-1.321-2.326-2.594-3.345-3.787c-1.091-1.279-2.141-2.558-3.117-3.804l-0.043-0.054h-0.704c-0.408,0-0.707-0.001-0.896-0.004
	c-0.189-0.002-0.36-0.006-0.514-0.011l-0.147-0.004v0.613l0.132,0.009c0.133,0.01,0.278,0.025,0.434,0.044l0.469,0.058
	c0.019,0.272,0.032,0.544,0.041,0.815c0.009,0.311,0.014,0.618,0.014,0.919c0,1.921-0.018,3.508-0.054,4.72
	c-0.044,1.495-0.097,1.942-0.133,2.053c-0.003,0.008-0.015,0.02-0.033,0.03c-0.035,0.02-0.079,0.034-0.131,0.041l-0.984,0.117v0.61
	l0.149-0.007c0.187-0.009,0.39-0.017,0.61-0.022c0.22-0.005,0.549-0.007,0.986-0.007c0.446,0,0.783,0.002,1.011,0.007
	c0.226,0.005,0.433,0.013,0.62,0.022l0.149,0.007v-0.609l-0.96-0.118c-0.111-0.015-0.143-0.041-0.149-0.046
	c0,0-0.027-0.025-0.047-0.139c-0.057-0.414-0.11-1.191-0.158-2.307c-0.045-1.073-0.098-2.714-0.156-4.883
	c0.769,0.781,1.612,1.696,2.51,2.724c0.997,1.142,2.493,2.946,4.446,5.362l0.04,0.05l0.776,0.042l-0.024-0.174
	c-0.042-0.316-0.075-0.869-0.096-1.644c-0.022-0.78-0.032-1.928-0.032-3.409c0-1.146,0.014-2.099,0.043-2.832
	c0.037-0.94,0.086-1.185,0.113-1.252c0.002-0.002,0.012-0.014,0.037-0.027c0.036-0.021,0.085-0.035,0.143-0.043l0.963-0.117v-0.607
	L68.308,45.21z"/>
<path fill="#13120D" d="M78.395,53.656c-0.092,0.258-0.674,0.696-3.525,0.727h-0.344c-0.033-0.557-0.058-1.092-0.074-1.591
	c-0.016-0.531-0.025-1.052-0.025-1.55c0-0.126,0.002-0.32,0.007-0.58c0.003-0.179,0.007-0.327,0.01-0.445l0.755,0.019
	c1.444,0.024,1.658,0.283,1.683,0.393l0.17,0.76l0.545-0.014l-0.009-0.149c-0.014-0.229-0.025-0.459-0.032-0.692
	c-0.008-0.233-0.011-0.464-0.011-0.692s0.003-0.454,0.011-0.678c0.007-0.223,0.018-0.448,0.032-0.677l0.01-0.153h-0.557
	l-0.089,0.653c-0.026,0.194-0.168,0.328-0.434,0.409c-0.296,0.089-0.994,0.136-2.077,0.14v-0.501c0-0.541,0.008-1.077,0.022-1.609
	c0.013-0.484,0.032-0.966,0.057-1.446c0.121,0.002,0.271,0.003,0.45,0.003c2.29,0.006,2.728,0.402,2.786,0.638l0.199,0.828h0.566
	l-0.001-0.146c-0.005-0.367-0.012-0.714-0.019-1.043c-0.007-0.327-0.015-0.636-0.025-0.925l-0.005-0.143l-0.141,0.004
	c-0.942,0.024-1.687,0.04-2.236,0.047c-0.547,0.008-1.066,0.011-1.556,0.011c-0.582,0-1.06-0.001-1.432-0.003
	c-0.373-0.003-0.737-0.006-1.093-0.012l-0.144-0.001v0.604l0.96,0.118c0.055,0.007,0.099,0.021,0.133,0.04
	c0.018,0.011,0.03,0.023,0.035,0.037c0.024,0.063,0.069,0.31,0.103,1.251c0.026,0.736,0.039,1.726,0.039,2.942
	c0,1.31-0.012,2.321-0.036,3.005c-0.029,0.839-0.074,1.123-0.103,1.204c-0.004,0.009-0.012,0.022-0.033,0.033
	c-0.022,0.011-0.063,0.027-0.135,0.036l-0.963,0.118v0.607l0.146-0.005c0.318-0.009,0.641-0.016,0.973-0.022
	c0.331-0.005,0.763-0.007,1.297-0.007c0.336,0,0.926,0.005,1.77,0.015c0.844,0.009,1.8,0.024,2.868,0.044l0.133,0.002l0.011-0.134
	c0.024-0.278,0.054-0.579,0.09-0.906l0.178-1.626l-0.549-0.055L78.395,53.656z"/>
<path fill="#13120D" d="M97.003,45.232c-0.198,0.005-0.383,0.007-0.556,0.007c-0.317,0-0.803-0.009-1.465-0.029h-0.185v0.599
	l1.021,0.157c-0.192,0.971-0.657,2.747-1.384,5.287l-0.469,1.662c-0.741-1.713-1.38-3.254-1.904-4.586
	c-0.558-1.421-0.924-2.435-1.085-3.014l-0.029-0.105h-0.998l-0.036,0.091c-0.602,1.539-1.213,3.021-1.817,4.405
	c-0.545,1.251-1.088,2.43-1.617,3.51c-0.315-1.245-0.591-2.464-0.824-3.627c-0.246-1.232-0.451-2.45-0.61-3.622l1.028-0.158V45.21
	h-0.189c-0.773,0.02-1.347,0.029-1.721,0.029c-0.206,0-0.428-0.002-0.665-0.007c-0.238-0.004-0.557-0.012-0.955-0.022L82.4,45.207
	l-0.013,0.599l0.974,0.166c0.361,1.528,0.794,3.376,1.299,5.545c0.87,3.711,0.87,3.711,1.011,3.711h0.844l0.037-0.086
	c0.761-1.75,1.564-3.568,2.388-5.402c0.673-1.499,0.999-2.231,1.156-2.59c0.402,1.047,0.935,2.417,1.589,4.08
	c0.727,1.847,1.233,3.161,1.504,3.904l0.034,0.094h0.923l0.028-0.107c0.621-2.392,1.211-4.428,1.755-6.05
	c0.522-1.56,0.953-2.602,1.282-3.097l0.764-0.174v-0.594l-0.146,0.004C97.479,45.22,97.203,45.228,97.003,45.232"/>
<path fill="#13120D" d="M114.055,49.68c-0.233-0.168-0.718-0.351-1.481-0.557c-0.215-0.058-0.38-0.104-0.497-0.139
	c-0.728-0.207-1.211-0.425-1.436-0.649c-0.217-0.216-0.322-0.519-0.322-0.927c0-0.495,0.131-0.873,0.401-1.158
	c0.268-0.283,0.621-0.421,1.08-0.421c0.688,0,1.181,0.101,1.46,0.301c0.268,0.19,0.397,0.512,0.397,0.985
	c0,0.067-0.001,0.12-0.004,0.156c-0.001,0.034-0.005,0.068-0.009,0.103l-0.021,0.163h0.608l0.012-0.13
	c0.038-0.39,0.086-0.776,0.141-1.146c0.055-0.361,0.122-0.716,0.203-1.056l0.036-0.148l-0.468-0.086l-0.159,0.191
	c-0.224-0.037-0.463-0.066-0.709-0.086c-0.276-0.023-0.587-0.034-0.924-0.034c-1.003,0-1.82,0.28-2.431,0.832
	c-0.612,0.557-0.924,1.297-0.924,2.201c0,0.342,0.083,0.662,0.247,0.951c0.164,0.291,0.395,0.522,0.687,0.686
	c0.3,0.168,0.813,0.352,1.568,0.562c0.287,0.078,0.509,0.141,0.667,0.19c0.544,0.167,0.937,0.391,1.167,0.667
	c0.227,0.27,0.342,0.645,0.342,1.116c0,0.733-0.203,1.303-0.603,1.696c-0.401,0.394-0.986,0.593-1.738,0.593
	c-0.684,0-1.167-0.12-1.438-0.356c-0.269-0.236-0.439-0.68-0.507-1.318l-0.013-0.118l-0.544-0.053l-0.021,0.134
	c-0.076,0.482-0.152,0.929-0.227,1.338c-0.078,0.427-0.153,0.806-0.233,1.16l-0.04,0.177h0.573l0.183-0.24
	c0.252,0.054,0.511,0.098,0.771,0.128c0.286,0.036,0.591,0.053,0.904,0.053c0.647,0,1.242-0.096,1.766-0.287
	c0.526-0.192,0.983-0.479,1.357-0.854c0.382-0.378,0.68-0.798,0.885-1.248c0.208-0.455,0.313-0.913,0.313-1.363
	c0-0.417-0.086-0.798-0.254-1.132C114.654,50.222,114.396,49.928,114.055,49.68"/>
<path fill="#13120D" d="M120.394,45.217l-1.239-0.025v0.603l0.961,0.135c0.075,0.01,0.116,0.025,0.136,0.036
	c0.021,0.011,0.031,0.022,0.032,0.022v-0.001c0.027,0.076,0.075,0.334,0.105,1.205c0.024,0.695,0.036,1.707,0.036,3.008
	c0,1.312-0.012,2.329-0.036,3.027c-0.03,0.886-0.079,1.134-0.108,1.21c-0.003,0.008-0.015,0.019-0.033,0.03
	c-0.034,0.02-0.079,0.034-0.13,0.041l-0.963,0.118v0.609l0.149-0.007c0.206-0.01,0.43-0.017,0.671-0.022
	c0.242-0.005,0.605-0.008,1.091-0.008c0.479,0,0.841,0.003,1.083,0.008c0.241,0.005,0.465,0.012,0.671,0.022l0.148,0.007v-0.609
	l-0.962-0.118c-0.056-0.007-0.101-0.02-0.132-0.04c-0.023-0.014-0.032-0.025-0.034-0.03c-0.023-0.063-0.068-0.292-0.095-1.123
	c-0.022-0.646-0.033-1.665-0.033-3.115c0-1.444,0.011-2.459,0.033-3.1c0.026-0.822,0.071-1.051,0.118-1.134
	c0.021-0.011,0.063-0.026,0.146-0.036l0.959-0.135v-0.603l-1.237,0.025C121.247,45.227,120.886,45.227,120.394,45.217"/>
<path fill="#13120D" d="M136.477,45.232c-0.235,0.005-0.453,0.007-0.654,0.007c-0.346,0-0.891-0.009-1.639-0.029h-0.265v0.605
	l1.126,0.115c0.098,0.014,0.134,0.039,0.146,0.05c0.005,0.005,0.032,0.033,0.051,0.134c0.057,0.437,0.12,1.3,0.187,2.566
	c0.063,1.192,0.119,2.6,0.169,4.19c-1.2-1.318-2.323-2.591-3.344-3.787c-1.092-1.277-2.141-2.557-3.118-3.804l-0.043-0.054h-0.703
	c-0.409,0-0.708-0.001-0.897-0.004c-0.189-0.002-0.36-0.006-0.514-0.011l-0.147-0.004v0.613l0.133,0.009
	c0.134,0.01,0.277,0.025,0.434,0.044l0.469,0.058c0.02,0.272,0.033,0.544,0.042,0.815c0.009,0.311,0.014,0.618,0.014,0.919
	c0,1.932-0.018,3.521-0.054,4.72c-0.046,1.573-0.104,1.961-0.134,2.053c-0.003,0.008-0.015,0.02-0.032,0.03
	c-0.035,0.02-0.08,0.034-0.131,0.041l-0.984,0.117v0.61l0.149-0.007c0.187-0.009,0.39-0.017,0.609-0.022
	c0.221-0.005,0.55-0.007,0.985-0.007c0.446,0,0.784,0.002,1.012,0.007c0.227,0.005,0.434,0.013,0.62,0.022l0.149,0.007v-0.609
	l-0.96-0.118c-0.11-0.015-0.144-0.041-0.149-0.046c0,0-0.027-0.025-0.047-0.139c-0.057-0.411-0.11-1.188-0.157-2.307
	c-0.046-1.056-0.097-2.656-0.157-4.883c0.77,0.782,1.613,1.696,2.511,2.724c0.992,1.136,2.488,2.94,4.445,5.362l0.04,0.05
	l0.775,0.042l-0.022-0.174c-0.043-0.312-0.075-0.865-0.097-1.644c-0.021-0.794-0.032-1.941-0.032-3.409
	c0-1.146,0.015-2.099,0.043-2.832c0.038-0.975,0.091-1.197,0.113-1.251c0.002-0.003,0.012-0.015,0.037-0.028
	c0.036-0.021,0.084-0.035,0.144-0.043l0.962-0.117v-0.607l-0.146,0.004C137.025,45.22,136.713,45.228,136.477,45.232"/>
<path fill="#13120D" d="M149.291,53.707c-0.365,0.272-0.77,0.481-1.2,0.62c-0.432,0.139-0.894,0.21-1.371,0.21
	c-1.275,0-2.31-0.439-3.075-1.306c-0.768-0.869-1.157-2.054-1.157-3.521c0-1.242,0.328-2.245,0.975-2.979
	c0.643-0.73,1.52-1.1,2.607-1.1c0.66,0,1.253,0.123,1.763,0.365c0.475,0.224,0.739,0.469,0.768,0.711l0.108,0.905l0.545,0.027
	l0.019-0.131c0.058-0.436,0.119-0.835,0.183-1.185c0.063-0.357,0.134-0.684,0.21-0.975l0.034-0.129l-0.533-0.189l-0.172,0.235
	c-0.427-0.107-0.839-0.19-1.224-0.247c-1.384-0.207-2.557-0.068-3.601,0.388c-0.73,0.32-1.375,0.796-1.916,1.415
	c-0.414,0.481-0.731,1.041-0.944,1.665c-0.211,0.62-0.317,1.304-0.317,2.031c0,1.509,0.446,2.718,1.327,3.593
	c0.88,0.873,2.097,1.317,3.614,1.317c0.661,0,1.308-0.098,1.923-0.293c0.614-0.194,1.209-0.489,1.767-0.877l0.104-0.072
	l-0.304-0.577L149.291,53.707z"/>
<path fill="#13120D" d="M159.906,53.656c-0.093,0.258-0.674,0.696-3.525,0.727h-0.343c-0.034-0.562-0.06-1.097-0.075-1.591
	c-0.017-0.533-0.024-1.054-0.024-1.55c0-0.126,0.002-0.32,0.007-0.58c0.003-0.179,0.007-0.327,0.01-0.445l0.755,0.019
	c1.444,0.024,1.657,0.283,1.683,0.393l0.171,0.76l0.545-0.014l-0.01-0.149c-0.014-0.229-0.024-0.459-0.032-0.692
	c-0.007-0.233-0.011-0.464-0.011-0.692s0.004-0.454,0.011-0.677c0.008-0.224,0.019-0.449,0.032-0.678l0.01-0.153h-0.557
	l-0.089,0.653c-0.025,0.194-0.168,0.328-0.434,0.409c-0.296,0.089-0.994,0.136-2.077,0.14v-0.501c0-0.541,0.008-1.077,0.022-1.609
	c0.013-0.484,0.031-0.966,0.057-1.446c0.12,0.002,0.271,0.003,0.45,0.003c2.289,0.006,2.728,0.402,2.785,0.638l0.2,0.828h0.565
	l-0.002-0.147c-0.005-0.366-0.011-0.713-0.019-1.042c-0.007-0.327-0.015-0.636-0.024-0.924l-0.005-0.144l-0.142,0.004
	c-0.941,0.024-1.687,0.04-2.235,0.047c-0.548,0.008-1.066,0.011-1.557,0.011c-0.582,0-1.06-0.001-1.432-0.003
	c-0.373-0.003-0.737-0.006-1.093-0.012l-0.145-0.001v0.604l0.96,0.118c0.056,0.007,0.1,0.021,0.133,0.04
	c0.019,0.011,0.03,0.023,0.036,0.037c0.023,0.063,0.068,0.309,0.102,1.251c0.025,0.733,0.04,1.723,0.04,2.942
	c0,1.302-0.012,2.313-0.036,3.005c-0.03,0.881-0.08,1.138-0.104,1.203c-0.003,0.011-0.011,0.023-0.031,0.034
	c-0.021,0.011-0.063,0.027-0.136,0.036l-0.963,0.118v0.607l0.146-0.005c0.316-0.009,0.642-0.016,0.973-0.022
	c0.331-0.005,0.763-0.007,1.297-0.007c0.337,0,0.927,0.005,1.771,0.015c0.845,0.009,1.8,0.024,2.868,0.044l0.132,0.002l0.012-0.134
	c0.024-0.278,0.055-0.579,0.09-0.906l0.178-1.626l-0.549-0.055L159.906,53.656z"/>
<path fill="#13120D" d="M176.636,53.098c-0.022-0.537-0.032-1.163-0.032-1.915c0-1.33,0.024-2.511,0.071-3.512
	c0.048-1.005,0.123-1.873,0.223-2.582l0.023-0.165h-0.294l-0.904,0.293c-1.333,0.45-2.255,0.755-2.818,0.93l-0.087,0.027
	l-0.141,1.029l2.452-1.022c0.025,0.631,0.045,1.263,0.06,1.897c0.018,0.692,0.026,1.406,0.026,2.123c0,0.718-0.014,1.45-0.04,2.176
	c-0.024,0.687-0.061,1.383-0.104,2.068l-1.18,0.185l0.014,0.608l0.148-0.011c0.345-0.023,0.67-0.042,0.974-0.054
	c0.612-0.024,1.148-0.023,1.75,0c0.304,0.012,0.629,0.031,0.974,0.054l0.152,0.011V54.63l-1.175-0.185
	C176.686,54.04,176.655,53.588,176.636,53.098"/>
<path fill="#13120D" d="M185.846,44.924c-0.429,0-0.884,0.091-1.352,0.27c-0.468,0.178-0.885,0.422-1.234,0.723
	c-0.438,0.359-0.771,0.782-0.989,1.257c-0.217,0.475-0.327,1.019-0.327,1.619c0,0.93,0.229,1.678,0.68,2.223
	c0.456,0.552,1.087,0.832,1.873,0.832c0.425,0,0.848-0.077,1.258-0.228c0.298-0.11,0.603-0.266,0.911-0.465
	c-0.271,0.805-0.671,1.507-1.191,2.09c-0.604,0.678-1.407,1.237-2.39,1.662l-0.117,0.05l0.11,0.374h0.891l0.029-0.016
	c1.465-0.746,2.627-1.767,3.454-3.033c0.83-1.27,1.251-2.661,1.251-4.134c0-0.996-0.255-1.789-0.758-2.358
	C187.437,45.215,186.732,44.924,185.846,44.924 M187.133,48.749c0,0.681-0.149,1.215-0.444,1.589
	c-0.292,0.368-0.695,0.547-1.232,0.547c-0.625,0-1.134-0.249-1.553-0.762c-0.423-0.513-0.636-1.173-0.636-1.96
	c0-0.738,0.186-1.327,0.552-1.749c0.368-0.423,0.852-0.629,1.479-0.629c0.546,0,0.975,0.254,1.314,0.778
	C186.958,47.098,187.133,47.834,187.133,48.749"/>
<path fill="#13120D" d="M196.429,44.925c-0.571,0-1.146,0.127-1.711,0.379c-0.564,0.251-1.035,0.589-1.398,1.003
	c-0.479,0.546-0.834,1.186-1.059,1.904c-0.222,0.712-0.335,1.568-0.335,2.547c0,1.494,0.271,2.656,0.809,3.454
	c0.548,0.816,1.349,1.229,2.38,1.229c0.64,0,1.271-0.185,1.877-0.552c0.604-0.364,1.131-0.877,1.567-1.527
	c0.308-0.453,0.551-1.035,0.725-1.732c0.173-0.693,0.261-1.44,0.261-2.221c0-1.333-0.284-2.423-0.846-3.235
	C198.127,45.345,197.364,44.925,196.429,44.925 M198.033,50.201c0,1.454-0.207,2.566-0.616,3.306c-0.4,0.722-0.97,1.073-1.739,1.073
	c-0.73,0-1.282-0.362-1.687-1.108c-0.414-0.765-0.625-1.865-0.625-3.271c0-1.479,0.196-2.607,0.582-3.353
	c0.377-0.725,0.919-1.078,1.658-1.078c0.751,0,1.326,0.374,1.76,1.141C197.808,47.694,198.033,48.801,198.033,50.201"/>
<path fill="#13120D" d="M208.75,49.62c-0.513-0.538-1.17-0.81-1.957-0.81c-0.463,0-0.935,0.091-1.4,0.269
	c-0.347,0.134-0.691,0.315-1.028,0.543c0.271-0.861,0.697-1.627,1.271-2.28c0.661-0.753,1.521-1.368,2.556-1.826l0.097-0.043
	l-0.038-0.34l-0.964-0.218l-0.049,0.031c-1.45,0.906-2.599,1.995-3.414,3.235c-0.82,1.248-1.236,2.534-1.236,3.823
	c0,1.071,0.249,1.918,0.74,2.519c0.497,0.609,1.201,0.918,2.094,0.918c0.551,0,1.084-0.102,1.586-0.304
	c0.502-0.201,0.956-0.492,1.348-0.864c0.373-0.354,0.663-0.762,0.862-1.213c0.2-0.451,0.302-0.922,0.302-1.401
	C209.519,50.843,209.26,50.157,208.75,49.62 M207.921,52.305c0,0.744-0.166,1.325-0.494,1.726c-0.326,0.399-0.775,0.593-1.37,0.593
	c-0.563,0-1.007-0.251-1.36-0.767c-0.358-0.524-0.54-1.229-0.54-2.095c0-0.728,0.057-1.017,0.104-1.131
	c0.066-0.159,0.2-0.308,0.396-0.443c0.224-0.153,0.446-0.269,0.66-0.346c0.21-0.075,0.424-0.113,0.632-0.113
	c0.623,0,1.096,0.219,1.443,0.667C207.743,50.849,207.921,51.492,207.921,52.305"/>
<path fill="#004996" d="M182.28,36.452V1.718h9.624c3.771,0,6.396,0.177,7.881,0.533c1.484,0.356,2.767,0.953,3.844,1.791
	c1.216,0.949,2.149,2.159,2.803,3.631c0.654,1.47,0.982,3.092,0.982,4.864c0,2.689-0.644,4.875-1.929,6.56
	c-1.284,1.685-3.156,2.804-5.618,3.357l9.209,13.998h-10.409l-7.756-13.595v13.595H182.28z M190.911,18.136h1.708
	c1.985,0,3.435-0.348,4.351-1.044c0.915-0.696,1.374-1.787,1.374-3.274c0-1.74-0.428-2.977-1.282-3.713
	c-0.854-0.736-2.287-1.104-4.304-1.104h-1.847V18.136z"/>
<path fill="#004996" d="M144.362,25.065c1.38,1.567,2.741,2.738,4.084,3.514c1.342,0.776,2.68,1.163,4.014,1.163
	c1.241,0,2.261-0.333,3.06-1s1.199-1.512,1.199-2.536c0-1.133-0.346-2.006-1.036-2.619c-0.69-0.612-2.253-1.244-4.688-1.896
	c-3.336-0.899-5.693-2.071-7.074-3.514s-2.071-3.42-2.071-5.933c0-3.259,1.09-5.915,3.27-7.971c2.18-2.056,5.007-3.083,8.482-3.083
	c1.877,0,3.658,0.252,5.34,0.756c1.684,0.504,3.277,1.268,4.782,2.292l-2.909,6.679c-1.055-0.9-2.137-1.579-3.246-2.037
	c-1.109-0.457-2.206-0.686-3.292-0.686c-1.117,0-2.025,0.267-2.723,0.803c-0.698,0.535-1.048,1.222-1.048,2.06
	c0,0.853,0.307,1.535,0.919,2.048c0.613,0.511,1.796,1,3.549,1.465c0.109,0.032,0.249,0.07,0.419,0.117
	c3.785,1.024,6.275,2.149,7.47,3.374c0.807,0.837,1.42,1.842,1.839,3.013c0.419,1.172,0.628,2.471,0.628,3.898
	c0,3.615-1.187,6.52-3.561,8.715c-2.373,2.195-5.538,3.293-9.494,3.293c-2.373,0-4.533-0.404-6.48-1.21
	c-1.947-0.808-3.82-2.072-5.619-3.793L144.362,25.065z"/>
<polygon fill="#004996" points="58.085,34.643 58.085,0.574 81.087,0.574 81.087,8.044 68.06,8.044 68.06,13.956 80.343,13.956 
	80.343,21.263 68.06,21.263 68.06,27.01 81.087,27.01 81.087,34.643 "/>
<path fill="#004996" d="M105.558,35.258h-7.209V1.19h7.209l12.518,19.757c-0.001,0.204-0.102-2.079-0.102-2.932V1.19h7.17v34.068
	h-7.17c0,0-11.911-17.95-12.447-19.408L105.558,35.258z"/>
<path fill="#004996" d="M33.08,0H8.565C3.842,0,0,3.956,0,8.819v30.088c0,3.321,1.877,6.06,5.58,8.143l0.262,0.14
	c3.429,1.834,9.793,5.224,13.885,7.322l0.664,0.341l0.663-0.344c5.203-2.707,14.44-7.192,14.522-7.231
	c5.049-2.616,6.099-5.994,6.099-8.371V8.819C41.675,3.956,37.819,0,33.08,0 M18.346,41.644c-1.306,1.208-3.048,1.812-5.226,1.812
	c-1.306,0-2.495-0.222-3.567-0.666c-1.071-0.444-2.102-1.14-3.092-2.088l2.305-3.804c0.76,0.863,1.509,1.507,2.247,1.934
	c0.739,0.427,1.475,0.641,2.21,0.641c0.683,0,1.244-0.184,1.684-0.551s0.66-0.833,0.66-1.396c0-0.624-0.19-1.104-0.57-1.441
	c-0.38-0.337-1.24-0.685-2.581-1.044c-1.836-0.495-3.134-1.14-3.893-1.934c-0.761-0.794-1.141-1.882-1.141-3.266
	c0-1.793,0.601-3.255,1.8-4.386c1.2-1.132,2.756-1.698,4.668-1.698c1.033,0,2.013,0.139,2.94,0.416
	c0.926,0.278,1.803,0.699,2.632,1.262l-1.601,3.676c-0.581-0.495-1.176-0.869-1.787-1.121c-0.611-0.252-1.215-0.378-1.812-0.378
	c-0.615,0-1.114,0.148-1.499,0.442c-0.384,0.295-0.576,0.673-0.576,1.134c0,0.47,0.169,0.845,0.506,1.127
	c0.337,0.282,0.988,0.551,1.953,0.807c0.06,0.017,0.137,0.039,0.231,0.064c2.083,0.564,3.453,1.183,4.111,1.857
	c0.444,0.461,0.781,1.014,1.012,1.659c0.23,0.644,0.345,1.36,0.345,2.145C20.305,38.836,19.652,40.435,18.346,41.644 M40.23,38.907
	c0,2.876-1.777,5.252-5.277,7.066c-0.017,0.008-9.352,4.541-14.566,7.253c-0.045-0.023-0.095-0.049-0.14-0.073V43.104h4.739v-7.482
	l4.269,7.482h5.728L29.915,35.4c1.355-0.305,2.385-0.921,3.092-1.848c0.708-0.927,1.062-2.131,1.062-3.611
	c0-0.975-0.181-1.867-0.541-2.677c-0.36-0.809-0.874-1.475-1.542-1.998c-0.593-0.461-1.299-0.79-2.116-0.986
	c-0.818-0.195-2.263-0.294-4.338-0.294h5.574c0,0-6.557-10.983-6.852-11.785l0.019,11.785h-3.968v-4.2h-7.169v-3.164h6.76v-4.021
	h-6.76V9.347h7.169V5.236H7.646v18.75H1.445V8.819c0-4.059,3.194-7.373,7.12-7.373h11.74v3.79h3.968l5.7,9.644
	c0.11,0.197,1.187,1.88,1.187,1.88l0.003-0.65c0,0.112-0.057-1.144-0.057-1.614v-9.26h3.947v18.75h5.177V38.907z M24.986,33.023
	v-5.027h1.016c1.11,0,1.899,0.202,2.369,0.607c0.47,0.405,0.706,1.086,0.706,2.044c0,0.818-0.253,1.418-0.757,1.802
	c-0.504,0.383-1.301,0.574-2.394,0.574H24.986z"/>
</svg>
